<?xml version="1.0" encoding="UTF-8"?>
<svg id="Layer_1" xmlns="http://www.w3.org/2000/svg" viewBox="0 0 384.8 501.49">
  <path d="M56.28,303.45S23.2,337.42.27,359.47c-6.17,97.48,96.59,142.02,118.65,142.02h143.79c59.99,0,126.59-78.07,121.73-140.26s-34.25-115.12-107.62-135.41c.44-26.91.44-97.03.44-97.03,0,0-5.02-15.3-22.49-22.05-16.94.54-34.4,0-34.4,0l.88,114.4h-57.34v-114.4s-16.78.52-34.4,0c-17.81,2.14-22.49,24.26-22.49,24.26l.88,84.24s-52.05-23.29-51.6-77.19,50.99-76.08,63.07-78.51c12.09-2.43,112.45-2.38,138.5,0,26.04,2.38,61.6,26.63,67.92,63.95-.25,26.48,0,73.66,0,73.66,0,0,33.19-32.06,58.66-57.78C389.56,85.58,340.37,9.42,265.35,0,190.32.72,114.44-.01,115.83,0S-1.22,22.69.27,143.35c8.61,116.57,105.86,130.56,105.86,130.56l114.24,4.85.88,113.35,34.4.44s20.51-2.51,21.61-20.29c-.43-11.88-1.32-87.33-1.32-87.33,0,0,51.69,17.26,51.16,78.95-.52,61.69-67.48,81.16-67.48,81.16,0,0-114.26-.89-126.15.88-34.3-6.05-65.02-23.13-76.75-67.04-.16-27.37-.44-75.42-.44-75.42Z" fill="#2563eb" />
  <path d="M106.58,287.65l57.46,1.42v104.78h-33.8c-17.79,0-25.08-25.79-25.08-25.79l1.42-80.41Z" fill="#2563eb"/>
</svg>